#!OML:ASF E:\Steps\Project 1\Capture day 1\Session 2\Subject.ASF
:FULLY-SPECIFIED
:DEGREES
136
root 8.87972 16.2689 31.5958 -157.847 -2.29921 176.126
lowerback -25.5989 -2.24664 -8.55546
upperback -1.48583 -0.895492 -1.20736
thorax 12.7624 -1.10806 3.15942
lowerneck -0.868492 -1.63063 -3.13545
upperneck -15.4264 -2.51212 7.46013
head -4.31349 -1.93069 2.94158
rclavicle -4.17448e-015 4.53229e-014
rhumerus -32.7517 -20.0023 -79.8073
rradius 26.0669
rwrist 1.74601
rhand -7.37528 -53.938
rfingers 7.12502
rthumb 18.5099 -83.0774
lclavicle -4.17448e-015 4.53229e-014
lhumerus -27.3151 12.5278 79.114
lradius 13.183
lwrist -15.5227
lhand -20.7659 -11.5921
lfingers 7.12502
lthumb 5.60034 18.3139
rfemur -20.2455 6.95072 15.5057
rtibia 9.63968
rfoot -20.4271 -8.60699
rtoes -31.1611
lfemur -22.0605 -10.4253 -24.0507
ltibia 12.2616
lfoot -10.3953 1.18445
ltoes -39.2745
137
root 8.87902 16.2692 31.597 -157.765 -2.29219 176.126
lowerback -25.5696 -2.22932 -8.55786
upperback -1.56821 -0.890907 -1.21195
thorax 12.6482 -1.10454 3.15876
lowerneck -0.751502 -1.63399 -3.11604
upperneck -15.4651 -2.50808 7.49982
head -4.34454 -1.93302 2.95322
rclavicle -2.08724e-015 -2.74323e-014
rhumerus -32.975 -20.1882 -79.6373
rradius 26.0345
rwrist 1.91033
rhand -7.35018 -53.8421
rfingers 7.12502
rthumb 18.534 -82.9792
lclavicle -2.08724e-015 -2.74323e-014
lhumerus -27.5171 12.7749 78.861
lradius 13.0761
lwrist -15.927
lhand -20.584 -11.2969
lfingers 7.12502
lthumb 5.77603 18.6043
rfemur -20.3666 6.92839 15.4898
rtibia 9.68824
rfoot -20.433 -8.59958
rtoes -31.1038
lfemur -22.1716 -10.5025 -24.025
ltibia 12.2749
lfoot -10.4085 1.21819
ltoes -39.3822
138
root 8.87857 16.2698 31.5954 -157.704 -2.30692 176.159
lowerback -25.5335 -2.19305 -8.55934
upperback -1.65097 -0.861653 -1.22187
thorax 12.527 -1.0892 3.16053
lowerneck -0.592665 -1.67389 -3.04349
upperneck -15.569 -2.55232 7.5714
head -4.39997 -1.96805 2.96968
rclavicle 8.10048e-015 -2.38542e-014
rhumerus -33.2517 -20.3472 -79.4914
rradius 26.0411
rwrist 2.06382
rhand -7.2147 -53.2641
rfingers 7.12502
rthumb 18.6643 -82.3887
lclavicle 8.10048e-015 -2.38542e-014
lhumerus -27.6783 13.0572 78.6042
lradius 12.8765
lwrist -16.3426
lhand -20.3954 -11.3227
lfingers 7.12502
lthumb 5.9581 18.5735
rfemur -20.4333 6.88256 15.5277
rtibia 9.70724
rfoot -20.4457 -8.56017
rtoes -31.0458
lfemur -22.2398 -10.5743 -23.9602
ltibia 12.2365
lfoot -10.3655 1.30843
ltoes -39.6534
139
root 8.87734 16.2706 31.593 -157.675 -2.28343 176.188
lowerback -25.5261 -2.19159 -8.55472
upperback -1.69329 -0.871908 -1.20196
thorax 12.4744 -1.09344 3.17776
lowerneck -0.451807 -1.67237 -3.05332
upperneck -15.6541 -2.54642 7.59257
head -4.44933 -1.96936 2.98206
rclavicle 4.07509e-015 -7.95139e-015
rhumerus -33.3588 -20.3803 -79.3715
rradius 25.9132
rwrist 2.18177
rhand -7.04055 -52.3685
rfingers 7.12502
rthumb 18.8318 -81.4769
lclavicle 4.07509e-015 -7.95139e-015
lhumerus -27.8172 13.5889 78.3562
lradius 12.6206
lwrist -16.6088
lhand -20.6919 -11.5997
lfingers 7.12502
lthumb 5.67179 18.3044
rfemur -20.4696 6.84299 15.5569
rtibia 9.71702
rfoot -20.5679 -8.42707
rtoes -30.6929
lfemur -22.2518 -10.6329 -23.905
ltibia 12.1958
lfoot -10.3788 1.348
ltoes -39.0595
140
root 8.87749 16.2712 31.5886 -157.685 -2.24243 176.218
lowerback -25.5465 -2.2179 -8.55187
upperback -1.68953 -0.908339 -1.15953
thorax 12.4951 -1.11142 3.21133
lowerneck -0.384562 -1.64632 -3.12478
upperneck -15.6855 -2.51067 7.59918
head -4.47101 -1.94907 2.99677
rclavicle 1.04362e-014 -4.45278e-014
rhumerus -33.3932 -20.3862 -79.2545
rradius 25.8028
rwrist 2.27656
rhand -6.86543 -52.1699
rfingers 7.12502
rthumb 19.0002 -81.2618
lclavicle 1.04362e-014 -4.45278e-014
lhumerus -27.9345 13.5097 78.4084
lradius 12.5297
lwrist -16.1711
lhand -21.4052 -11.546
lfingers 7.12502
lthumb 4.98312 18.3754
rfemur -20.4327 6.93587 15.5802
rtibia 9.68664
rfoot -20.5784 -8.43506
rtoes -30.3848
lfemur -22.191 -10.6409 -23.8643
ltibia 12.16
lfoot -10.4054 1.34361
ltoes -38.2383
141
root 8.8788 16.2725 31.5837 -157.728 -2.24417 176.234
lowerback -25.5248 -2.22546 -8.55501
upperback -1.66915 -0.915108 -1.1573
thorax 12.5084 -1.11426 3.2134
lowerneck -0.368115 -1.65343 -3.11996
upperneck -15.679 -2.51413 7.65247
head -4.47058 -1.95429 3.01275
rclavicle 3.52843e-015 -2.50469e-014
rhumerus -33.4563 -20.4896 -79.202
rradius 25.7938
rwrist 2.36139
rhand -6.85888 -52.598
rfingers 7.12502
rthumb 19.0065 -81.6893
lclavicle 3.52843e-015 -2.50469e-014
lhumerus -28.0402 13.0762 78.4947
lradius 12.5289
lwrist -15.8667
lhand -21.8103 -11.2982
lfingers 7.12502
lthumb 4.59195 18.632
rfemur -20.3289 7.03323 15.6029
rtibia 9.62292
rfoot -20.4768 -8.51767
rtoes -30.5975
lfemur -22.0977 -10.5523 -23.8597
ltibia 12.1507
lfoot -10.3973 1.24572
ltoes -37.7411
142
root 8.87753 16.273 31.5816 -157.759 -2.24937 176.222
lowerback -25.5019 -2.20745 -8.52451
upperback -1.64205 -0.892385 -1.20947
thorax 12.5239 -1.10072 3.14431
lowerneck -0.282265 -1.6611 -3.04183
upperneck -15.7376 -2.51905 7.6857
head -4.5031 -1.96664 3.0131
rclavicle 3.77691e-015 -4.92986e-014
rhumerus -33.4939 -20.6587 -79.2024
rradius 25.7709
rwrist 2.4372
rhand -6.84507 -52.9048
rfingers 7.12502
rthumb 19.0198 -81.9949
lclavicle 3.77691e-015 -4.92986e-014
lhumerus -28.0951 13.1028 78.278
lradius 12.4711
lwrist -16.2819
lhand -21.6645 -11.4544
lfingers 7.12502
lthumb 4.73271 18.4727
rfemur -20.2668 7.01231 15.5929
rtibia 9.5934
rfoot -20.4594 -8.48895
rtoes -30.7052
lfemur -22.0398 -10.5109 -23.8941
ltibia 12.1484
lfoot -10.3689 1.21993
ltoes -37.4636
